{"title":"Mystic_River[x264][AC3(5.1)]Multi_Sub.mkv","uid":5244366,"size":2531850942,"categoryP":"video","categoryS":"movies","magnet":"?xt=urn:btih:24c033a1b0112b8d14a1e2b2bb4d3052f9d2f527&amp;dn=Mystic_River%5Bx264%5D%5BAC3%285.1%29%5DMulti_Sub.mkv&amp;tr=udp%3A%2F%2Ftracker.openbittorrent.com%3A80&amp;tr=udp%3A%2F%2Fopen.demonii.com%3A1337&amp;tr=udp%3A%2F%2Ftracker.coppersurfer.tk%3A6969&amp;tr=udp%3A%2F%2Fexodus.desync.com%3A6969","seeders":0,"leechers":0,"uploader":"Zen_Bud","files":-1,"time":1261930102,"description":"General\nComplete name                    : Mystic_River.mkv\nFormat                           : Matroska\nFile size                        : 2.36 GiB\nDuration                         : 2h 12mn\nOverall bit rate                 : 2 553 Kbps\n\n\nVideo\nID                               : 1\nFormat                           : AVC\nDuration                         : 2h 12mn\nBit rate                         : 2 118 Kbps\nNominal bit rate                 : 2 151 Kbps\nWidth                            : 720 pixels\nHeight                           : 426 pixels\nDisplay aspect ratio             : 2.40:1\nFrame rate                       : 25.000 fps\nResolution                       : 8 bits\nColorimetry                      : 4:2:0\nScan type                        : Progressive\nBits/(Pixel*Frame)               : 0.276\nStream size                      : 1.96 GiB (83%)\nWriting library                  : x264 core 79\n\n\nAudio\nID                               : 2\nFormat                           : AC-3\nFormat/Info                      : Audio Coding 3\nCodec ID                         : A_AC3\nDuration                         : 2h 12mn\nBit rate mode                    : Constant\nBit rate                         : 384 Kbps\nChannel(s)                       : 6 channels\nChannel positions                : Front: L C R, Surround: L R, LFE\nSampling rate                    : 48.0 KHz\nStream size                      : 363 MiB (15%)\nLanguage                         : English\n\nText #1\nLanguage                         : Swedish\n\nText #2\nLanguage                         : Norwegian\n\nText #3\nLanguage                         : Danish\n\nText #4\nLanguage                         : Finnish\n\nText #5\nLanguage                         : Icelandic\n\n\n","torrent":{"xt":"urn:btih:24c033a1b0112b8d14a1e2b2bb4d3052f9d2f527","amp;dn":"Mystic_River%5Bx264%5D%5BAC3%285.1%29%5DMulti_Sub.mkv","amp;tr":["udp%3A%2F%2Ftracker.openbittorrent.com%3A80","udp%3A%2F%2Fopen.demonii.com%3A1337","udp%3A%2F%2Ftracker.coppersurfer.tk%3A6969","udp%3A%2F%2Fexodus.desync.com%3A6969"],"infoHash":"24c033a1b0112b8d14a1e2b2bb4d3052f9d2f527","infoHashBuffer":{"type":"Buffer","data":[36,192,51,161,176,17,43,141,20,161,226,178,187,77,48,82,249,210,245,39]},"announce":[],"urlList":[]}}